<svg xmlns="http://www.w3.org/2000/svg" xmlns:xlink="http://www.w3.org/1999/xlink" viewBox="0 0 430 430" width="430" height="430" preserveAspectRatio="xMidYMid meet" style="width: 100%; height: 100%; transform: translate3d(0px, 0px, 0px); content-visibility: visible;"><defs><clipPath id="__lottie_element_16"><rect width="430" height="430" x="0" y="0"/></clipPath><clipPath id="__lottie_element_18"><path d="M0,0 L430,0 L430,430 L0,430z"/></clipPath><g id="__lottie_element_32"><g transform="matrix(1,0,0,1,215,182.5)" opacity="1" style="display: block;"><g opacity="1" transform="matrix(1,0,0,1,0,0)"><path fill="rgb(75,179,253)" fill-opacity="1" d=" M50,-84.5 C50,-86.15699768066406 51.34299850463867,-87.5 53,-87.5 C53,-87.5 130,-87.5 130,-87.5 C138.28399658203125,-87.5 145,-80.78399658203125 145,-72.5 C145,-72.5 145,84.5 145,84.5 C145,86.15699768066406 143.65699768066406,87.5 142,87.5 C142,87.5 -142,87.5 -142,87.5 C-143.65699768066406,87.5 -145,86.15699768066406 -145,84.5 C-145,84.5 -145,-72.5 -145,-72.5 C-145,-80.78399658203125 -138.28399658203125,-87.5 -130,-87.5 C-130,-87.5 -53,-87.5 -53,-87.5 C-51.34299850463867,-87.5 -50,-86.15699768066406 -50,-84.5 C-50,-84.5 -50,-83 -50,-83 C-50,-77.47699737548828 -45.52299880981445,-73 -40,-73 C-40,-73 40,-73 40,-73 C45.52299880981445,-73 50,-77.47699737548828 50,-83 C50,-83 50,-84.5 50,-84.5z"/></g></g></g><g id="__lottie_element_38"><g transform="matrix(1,0,0,1,215,182.5)" opacity="1" style="display: block;"><g opacity="1" transform="matrix(1,0,0,1,0,0)"><path fill="rgb(75,179,253)" fill-opacity="1" d=" M50,-84.5 C50,-86.15699768066406 51.34299850463867,-87.5 53,-87.5 C53,-87.5 130,-87.5 130,-87.5 C138.28399658203125,-87.5 145,-80.78399658203125 145,-72.5 C145,-72.5 145,84.5 145,84.5 C145,86.15699768066406 143.65699768066406,87.5 142,87.5 C142,87.5 -142,87.5 -142,87.5 C-143.65699768066406,87.5 -145,86.15699768066406 -145,84.5 C-145,84.5 -145,-72.5 -145,-72.5 C-145,-80.78399658203125 -138.28399658203125,-87.5 -130,-87.5 C-130,-87.5 -53,-87.5 -53,-87.5 C-51.34299850463867,-87.5 -50,-86.15699768066406 -50,-84.5 C-50,-84.5 -50,-83 -50,-83 C-50,-77.47699737548828 -45.52299880981445,-73 -40,-73 C-40,-73 40,-73 40,-73 C45.52299880981445,-73 50,-77.47699737548828 50,-83 C50,-83 50,-84.5 50,-84.5z"/></g></g></g><mask id="__lottie_element_38_1" mask-type="alpha"><use xmlns:ns1="http://www.w3.org/1999/xlink" ns1:href="#__lottie_element_38"/></mask><mask id="__lottie_element_32_1" mask-type="alpha"><use xmlns:ns2="http://www.w3.org/1999/xlink" ns2:href="#__lottie_element_32"/></mask></defs><g clip-path="url(#__lottie_element_16)"><g clip-path="url(#__lottie_element_18)" transform="matrix(1,0,0,1,0,0)" opacity="1" style="display: block;"><g transform="matrix(1,0,0,1,215,185)" opacity="1" style="display: block;"><path class="secondary" fill="rgb(58,51,71)" fill-opacity="1" d=" M-50,-105 C-50,-105 -50,-90 -50,-90 C-50,-84.47699737548828 -45.52299880981445,-80 -40,-80 C-40,-80 40,-80 40,-80 C45.52299880981445,-80 50,-84.47699737548828 50,-90 C50,-90 50,-105 50,-105 M-160,105 C-160,105 -160,-85 -160,-85 C-160,-96.0459976196289 -151.04600524902344,-105 -140,-105 C-140,-105 140,-105 140,-105 C151.04600524902344,-105 160,-96.0459976196289 160,-85 C160,-85 160,105 160,105 M87,95.5 C87,95.5 87,138.5 87,138.5 C87,138.5 -73.5,138.5 -73.5,138.5 C-73.5,138.5 -73.5,95.5 -73.5,95.5 C-73.5,95.5 87,95.5 87,95.5z"/><g opacity="1" transform="matrix(1,0,0,1,0,0)"/><g opacity="1" transform="matrix(1,0,0,1,0,0)"><path class="secondary" fill="rgb(58,51,71)" fill-opacity="1" d=" M-160,105 C-160,105 -160,-85 -160,-85 C-160,-96.0459976196289 -151.04600524902344,-105 -140,-105 C-140,-105 140,-105 140,-105 C151.04600524902344,-105 160,-96.0459976196289 160,-85 C160,-85 160,105 160,105"/></g><g opacity="1" transform="matrix(1,0,0,1,6.75,117)"><path class="secondary" fill="rgb(58,51,71)" fill-opacity="1" d=" M80.25,-21.5 C80.25,-21.5 80.25,21.5 80.25,21.5 C80.25,21.5 -80.25,21.5 -80.25,21.5 C-80.25,21.5 -80.25,-21.5 -80.25,-21.5 C-80.25,-21.5 80.25,-21.5 80.25,-21.5z"/></g></g><g transform="matrix(1,0,0,1,215,182.5)" opacity="1" style="display: block;"><g opacity="1" transform="matrix(1,0,0,1,0,0)"><path class="primary" fill="rgb(75,179,253)" fill-opacity="1" d=" M50,-84.5 C50,-86.15699768066406 51.34299850463867,-87.5 53,-87.5 C53,-87.5 130,-87.5 130,-87.5 C138.28399658203125,-87.5 145,-80.78399658203125 145,-72.5 C145,-72.5 145,84.5 145,84.5 C145,86.15699768066406 143.65699768066406,87.5 142,87.5 C142,87.5 -142,87.5 -142,87.5 C-143.65699768066406,87.5 -145,86.15699768066406 -145,84.5 C-145,84.5 -145,-72.5 -145,-72.5 C-145,-80.78399658203125 -138.28399658203125,-87.5 -130,-87.5 C-130,-87.5 -53,-87.5 -53,-87.5 C-51.34299850463867,-87.5 -50,-86.15699768066406 -50,-84.5 C-50,-84.5 -50,-83 -50,-83 C-50,-77.47699737548828 -45.52299880981445,-73 -40,-73 C-40,-73 40,-73 40,-73 C45.52299880981445,-73 50,-77.47699737548828 50,-83 C50,-83 50,-84.5 50,-84.5z"/></g></g><g mask="url(#__lottie_element_32_1)" style="mix-blend-mode: multiply; display: block;"><g transform="matrix(1,0,0,1,215,182.5)" opacity="0.4"><g opacity="1" transform="matrix(1,0,0,1,0,0)"><path class="primary" fill="rgb(75,179,253)" fill-opacity="1" d=" M-120.08599853515625,-87.5 C-120.08599853515625,-87.5 54.91400146484375,87.5 54.91400146484375,87.5 C54.91400146484375,87.5 206.5,232 206.5,232 C208.15699768066406,232 281,196.15699768066406 281,194.5 C281,194.5 145,64.4489974975586 145,64.4489974975586 C145,64.4489974975586 7.551000118255615,-73 7.551000118255615,-73 C7.551000118255615,-73 -149.5,-232.5 -149.5,-232.5 C-155.0229949951172,-232.5 -150.5,-236.9770050048828 -150.5,-242.5 C-150.5,-242.5 -248.5,-214 -248.5,-214 C-248.5,-215.65699768066406 -249.84300231933594,-217 -251.5,-217 C-251.5,-217 -120.08599853515625,-87.5 -120.08599853515625,-87.5z M140,278.5 C140,278.5 -39.17300033569336,87.5 -39.17300033569336,87.5 C-39.17300033569336,87.5 -145,-18.32699966430664 -145,-18.32699966430664 C-145,-18.32699966430664 -309.49700927734375,-194.90699768066406 -309.49700927734375,-194.90699768066406 C-309.49700927734375,-194.90699768066406 -395,-137 -395,-137 C-395,-136.51400756835938 0.36800000071525574,287.3869934082031 51.81399917602539,323.0480041503906 C175.7899932861328,408.9840087890625 138.82899475097656,278.5 140,278.5z"/></g></g></g><g mask="url(#__lottie_element_38_1)" style="mix-blend-mode: multiply; display: block;"><g transform="matrix(1,0,0,1,162,247)" opacity="0.5"><g opacity="1" transform="matrix(1,0,0,1,0,0)"><path stroke-linecap="butt" stroke-linejoin="miter" fill-opacity="0" stroke-miterlimit="4" class="primary" stroke="rgb(75,179,253)" stroke-opacity="1" stroke-width="12.599999999999994" d=" M224.5,-219 C224.5,-219 508,90.5 508,90.5"/></g></g></g><g transform="matrix(1,0,0,1,215,317)" opacity="1" style="display: block;"><g opacity="1" transform="matrix(1,0,0,1,0,0)"><path class="tertiary" fill="rgb(235,230,239)" fill-opacity="1" d=" M-58,-27.5 C-56.34299850463867,-27.5 -55,-26.156999588012695 -55,-24.5 C-55,-24.5 -55,-17.5 -55,-17.5 C-55,-11.97700023651123 -50.52299880981445,-7.5 -45,-7.5 C-45,-7.5 45,-7.5 45,-7.5 C50.52299880981445,-7.5 55,-11.97700023651123 55,-17.5 C55,-17.5 55,-24.5 55,-24.5 C55,-26.156999588012695 56.34299850463867,-27.5 58,-27.5 C58,-27.5 182,-27.5 182,-27.5 C183.65699768066406,-27.5 185,-26.156999588012695 185,-24.5 C185,-24.5 185,-2.5 185,-2.5 C185,14.069000244140625 171.56900024414062,27.5 155,27.5 C155,27.5 -155,27.5 -155,27.5 C-171.56900024414062,27.5 -185,14.069000244140625 -185,-2.5 C-185,-2.5 -185,-24.5 -185,-24.5 C-185,-26.156999588012695 -183.65699768066406,-27.5 -182,-27.5 C-182,-27.5 -58,-27.5 -58,-27.5z"/></g></g><g transform="matrix(1,0,0,1,214.14599609375,317)" opacity="0.5" style="mix-blend-mode: multiply; display: block;"><g opacity="1" transform="matrix(1,0,0,1,0,0)"><path class="tertiary" fill="rgb(235,230,239)" fill-opacity="1" d=" M-181.14599609375,-27.5 C-181.14599609375,-27.5 -134.14599609375,-27.5 -134.14599609375,-27.5 C-134.14599609375,-27.5 -134.14599609375,-22.5 -134.14599609375,-22.5 C-134.14599609375,-5.931000232696533 -120.71499633789062,7.5 -104.14600372314453,7.5 C-104.14600372314453,7.5 184.14599609375,7.5 184.14599609375,7.5 C180.0279998779297,19.152000427246094 168.91600036621094,27.5 155.85400390625,27.5 C155.85400390625,27.5 -154.14599609375,27.5 -154.14599609375,27.5 C-170.71499633789062,27.5 -184.14599609375,14.069000244140625 -184.14599609375,-2.5 C-184.14599609375,-2.5 -184.14599609375,-24.5 -184.14599609375,-24.5 C-184.14599609375,-26.156999588012695 -182.80299377441406,-27.5 -181.14599609375,-27.5z"/></g></g></g></g></svg>